<?xml version="1.0" standalone="no"?><!DOCTYPE svg PUBLIC "-//W3C//DTD SVG 1.1//EN" "http://www.w3.org/Graphics/SVG/1.1/DTD/svg11.dtd"><svg t="1623897950734" class="icon" viewBox="0 0 1024 1024" version="1.1" xmlns="http://www.w3.org/2000/svg" p-id="9301" xmlns:xlink="http://www.w3.org/1999/xlink" width="128" height="128"><defs><style type="text/css"></style></defs><path d="M512 0a512 512 0 1 1 0 1024A512 512 0 0 1 512 0z m121.024 754.752l-14.208 3.52c-64.576 15.104-130.56 20.928-196.928 17.28 20.8 46.272 46.4 92.16 76.8 137.6l10.112 14.848a424.64 424.64 0 0 0 47.552-2.368l-0.512-0.256 10.496-18.176c28.544-50.88 50.816-101.76 66.688-152.448z m-489.6-49.664l0.32 0.576a417.28 417.28 0 0 0 238.272 201.6 969.6 969.6 0 0 1-69.632-146.176 803.328 803.328 0 0 1-168.96-56zM915.712 612.48l-13.312 10.24a795.264 795.264 0 0 1-160.32 94.4 821.76 821.76 0 0 1-59.968 174.528 416.96 416.96 0 0 0 233.6-279.168z m-269.248-184.96l-10.112 4.096a540.352 540.352 0 0 1-283.008 30.976c-0.128 71.68 10.24 142.72 31.232 212.992a600.64 600.64 0 0 0 272.512-27.776 596.416 596.416 0 0 0-10.624-220.288z m-528.256-50.176l-1.92 5.76a415.68 415.68 0 0 0-15.744 191.04c58.88 35.072 118.912 61.696 179.136 79.424a826.304 826.304 0 0 1-21.952-214.144 764.928 764.928 0 0 1-139.52-62.08z m744.576-89.024l-3.456 3.072a835.264 835.264 0 0 1-124.928 92.16c19.584 72.32 27.392 145.728 23.296 219.52a754.176 754.176 0 0 0 158.912-118.144l9.728-9.472a413.504 413.504 0 0 0-63.552-187.136zM439.68 102.272l2.304-4.864C398.848 187.52 371.328 277.248 359.68 366.4a448.256 448.256 0 0 0 257.664-30.464C584.448 254.08 533.76 173.248 465.088 94.336l3.456 3.904a415.808 415.808 0 0 0-28.8 4.032z m-121.984 41.792l-11.648 6.4A418.112 418.112 0 0 0 159.744 290.56c36.096 20.736 71.552 37.568 106.688 50.496a940.8 940.8 0 0 1 51.264-196.992z m278.528-39.552l11.456 15.936a889.216 889.216 0 0 1 94.912 170.176c33.28-21.376 66.56-46.976 99.52-76.672a414.336 414.336 0 0 0-205.888-109.44z" p-id="9302" fill="#ffffff"></path></svg>