<?xml version="1.0" encoding="UTF-8"?>
<svg width="13px" height="16px" viewBox="0 0 13 16" version="1.1" xmlns="http://www.w3.org/2000/svg" xmlns:xlink="http://www.w3.org/1999/xlink">
    <!-- Generator: Sketch 53.2 (72643) - https://sketchapp.com -->
    <title>工作台_字典</title>
    <desc>Created with Sketch.</desc>
    <g id="页面-1" stroke="none" stroke-width="1" fill="none" fill-rule="evenodd">
        <g id="工作台" transform="translate(-74.000000, -569.000000)" fill="#3C3C46" fill-rule="nonzero">
            <g id="二级侧边" transform="translate(48.000000, 91.000000)">
                <g id="4" transform="translate(0.000000, 470.000000)">
                    <g id="一级菜单">
                        <g id="工作台_字典" transform="translate(26.000000, 8.000000)">
                            <path d="M7.63022222,0.752 L2.22311111,0.752 C0.995555556,0.752 0.000888888889,1.74666667 0.000888888889,2.97422222 C0.000888888889,3.05511111 0.016,3.13155556 0.0248888889,3.21066667 L0.000888888889,3.21066667 L0.000888888889,13.9146667 C0.000888888889,14.6497778 0.599111111,15.248 1.33422222,15.248 L12.4435556,15.248 L12.4435556,5.19733333 L12.4435556,4.94666667 L12.4435556,4.30844444 L2.22311111,4.30844444 L2.22311111,4.30755556 C1.488,4.30755556 0.889777778,3.70933333 0.889777778,2.97422222 C0.889777778,2.23911111 1.488,1.64088889 2.22311111,1.64088889 L7.63022222,1.64088889 L12.4435556,1.64088889 L12.4435556,0.752 L7.63022222,0.752 Z M4.776,5.19733333 L7.66933333,5.19733333 L7.66933333,8.34577778 L6.53688889,7.21333333 C6.45333333,7.12977778 6.33777778,7.088 6.22222222,7.088 C6.10666667,7.088 5.99111111,7.12977778 5.90844444,7.21333333 L4.776,8.34577778 L4.776,5.19733333 Z M2.22311111,5.19644444 L2.22311111,5.19733333 L3.88711111,5.19733333 L3.88711111,9.41866667 C3.88711111,9.59822222 3.99555556,9.76088889 4.16177778,9.82933333 C4.32888889,9.89688889 4.51822222,9.86044444 4.64622222,9.73333333 L6.22222222,8.15555556 L7.79911111,9.73333333 C7.92711111,9.86133333 8.11644444,9.89777778 8.28355556,9.82933333 C8.44977778,9.76088889 8.55822222,9.59822222 8.55822222,9.41866667 L8.55822222,5.19733333 L11.5555556,5.19733333 L11.5555556,14.3582222 L1.33422222,14.3582222 C1.08888889,14.3582222 0.889777778,14.1582222 0.889777778,13.9137778 L0.889777778,4.74222222 C1.26222222,5.02311111 1.72,5.19644444 2.22311111,5.19644444 Z" id="形状"></path>
                            <rect id="矩形" x="2.22311111" y="2.53066667" width="10.2204444" height="1"></rect>
                        </g>
                    </g>
                </g>
            </g>
        </g>
    </g>
</svg>