<?xml version="1.0" encoding="UTF-8"?>
<svg width="14px" height="14px" viewBox="0 0 14 14" version="1.1" xmlns="http://www.w3.org/2000/svg" xmlns:xlink="http://www.w3.org/1999/xlink">
    <title>编辑</title>
    <g id="页面-1" stroke="none" stroke-width="1" fill="none" fill-rule="evenodd">
        <g id="画板" transform="translate(-361.000000, -330.000000)" fill-rule="nonzero">
            <g id="编辑" transform="translate(361.000000, 330.000000)">
                <path d="M1.33090601,1.35117771 L1.33090601,12.6691385 L12.6502613,12.6691385 L12.6502613,6.73698035 C12.6502613,6.33141786 12.8393843,6.00219912 13.2498414,6.00219912 C13.6556498,6.00219912 13.9846226,6.33117188 13.9846226,6.73698035 L13.9846226,12.5717674 C13.9842389,13.3598497 13.34588,13.9988386 12.5577984,13.9999998 L1.4268689,13.9999998 C0.639325779,13.9988553 0.00117694509,13.3607187 -1.72498588e-08,12.5731756 L-1.72498588e-08,1.45133787 C-0.00184735361,1.0736578 0.146401358,0.710706646 0.412148761,0.442333716 C0.677896165,0.173960786 1.03937235,0.0221510726 1.4170525,0.020302734 L7.57125552,0.020302734 C7.97679166,0.0206875649 8.30533967,0.349547643 8.30533949,0.755083972 C8.30533949,1.16066014 7.97681801,1.35467771 7.57125552,1.35467771 L1.33090601,1.35467771 L1.33090601,1.35117771 Z" id="路径" fill="#5B6B73"></path>
                <path d="M5.73746062,9.29434554 L13.7667886,1.26432029 C14.0494022,0.98780144 14.0604421,0.53652563 13.7916878,0.246518308 C13.5229335,-0.0434890142 13.0721229,-0.0667608701 12.7749351,0.194031247 C12.7686461,0.200320309 12.7623296,0.205925778 12.7567242,0.212242184 L12.7357105,0.233255855 L4.70569892,8.26397837 C4.57174591,8.40348657 4.49870442,8.59049706 4.50264532,8.78386307 C4.50658623,8.97722909 4.58718666,9.16110827 4.7267126,9.29504281 C5.00624819,9.57313761 5.45793871,9.57313761 5.7374743,9.29504281 L5.73746062,9.29434554 Z" id="路径" fill="#4E75FD"></path>
            </g>
        </g>
    </g>
</svg>