<?xml version="1.0" encoding="UTF-8"?>
<svg width="14px" height="14px" viewBox="0 0 14 14" version="1.1" xmlns="http://www.w3.org/2000/svg" xmlns:xlink="http://www.w3.org/1999/xlink">
    <!-- Generator: Sketch 53.2 (72643) - https://sketchapp.com -->
    <title>工作台_实体</title>
    <desc>Created with Sketch.</desc>
    <g id="页面-1" stroke="none" stroke-width="1" fill="none" fill-rule="evenodd">
        <g id="工作台" transform="translate(-72.000000, -270.000000)" fill="#3C3C46" fill-rule="nonzero">
            <g id="二级侧边" transform="translate(48.000000, 91.000000)">
                <g id="2" transform="translate(0.000000, 170.000000)">
                    <g id="一级菜单">
                        <g id="工作台_实体" transform="translate(24.000000, 9.000000)">
                            <path d="M0.56525,0 L0.56525,0.875 L0.56525,13.125 L0.56525,14 L13.433875,14 L13.433875,13.125 L13.433875,0.875 L13.433875,0 L0.56525,0 Z M8.561875,4.375 L5.439,4.375 L5.439,0.875 L8.561875,0.875 L8.561875,4.375 Z M12.55975,8.75 L9.436875,8.75 L9.436875,5.25 L12.55975,5.25 L12.55975,8.75 Z M8.561875,8.75 L5.439,8.75 L5.439,5.25 L8.561875,5.25 L8.561875,8.75 Z M1.44025,5.25 L4.563125,5.25 L4.563125,8.75 L1.44025,8.75 L1.44025,5.25 Z M4.564,0.875 L4.564,4.375 L1.44025,4.375 L1.44025,0.875 L4.564,0.875 Z M1.44025,9.625 L4.563125,9.625 L4.563125,13.125 L1.44025,13.125 L1.44025,9.625 Z M5.439,9.625 L8.561875,9.625 L8.561875,13.125 L5.439,13.125 L5.439,9.625 Z M9.436875,13.125 L9.436875,9.625 L12.55975,9.625 L12.55975,13.125 L9.436875,13.125 Z M12.55975,4.375 L9.436875,4.375 L9.436875,0.875 L12.55975,0.875 L12.55975,4.375 Z" id="形状"></path>
                        </g>
                    </g>
                </g>
            </g>
        </g>
    </g>
</svg>