<?xml version="1.0" standalone="no"?><!DOCTYPE svg PUBLIC "-//W3C//DTD SVG 1.1//EN" "http://www.w3.org/Graphics/SVG/1.1/DTD/svg11.dtd"><svg t="1624263974186" class="icon" viewBox="0 0 1075 1024" version="1.1" xmlns="http://www.w3.org/2000/svg" p-id="2397" xmlns:xlink="http://www.w3.org/1999/xlink" width="134.375" height="128"><defs><style type="text/css"></style></defs><path d="M1075.530349 485.422326v-2.358998c0-0.51-0.075-1.021999-0.135-1.503v-0.539999q-0.105-0.813-0.24-1.608999v-0.42q-0.166-0.917999-0.376-1.819999v-0.21a36.891978 36.891978 0 0 0-0.721999-2.614998L945.129428 48.093591A67.237959 67.237959 0 0 0 880.386467 0.00062H195.084882a67.237959 67.237959 0 0 0-64.681961 48.089971L1.772999 474.287333a40.029976 40.029976 0 0 0-0.721 2.629998v0.18q-0.21 0.916999-0.375999 1.849999v0.39c-0.09 0.54-0.165 1.096999-0.24 1.637999v0.509999c0 0.527-0.105 1.037999-0.135 1.504v2.644998H0v470.738715A67.703959 67.703959 0 0 0 67.627959 1024h940.289431a67.703959 67.703959 0 0 0 67.629959-67.627959v-470.679715c0-0.104-0.017-0.27-0.017-0.27zM200.735878 75.144575H874.80947l112.563932 372.977774H701.576575a37.570977 37.570977 0 0 0-37.570977 37.569977 124.961924 124.961924 0 1 1-249.924849 0 37.570977 37.570977 0 0 0-37.570977-37.569977H88.156947z m799.667516 873.71247H75.142955V523.264303H342.469793c17.628989 92.439944 99.06794 162.533902 196.558881 162.533902s178.943892-70.092958 196.572881-162.533902h264.801839z" p-id="2398" fill="#ffffff"></path><path d="M329.7858 149.31053h418.529747v75.141954h-418.529747z m-89.043946 148.01491h596.601639v75.142954H240.741854z" p-id="2399" fill="#ffffff"></path></svg>