<?xml version="1.0" standalone="no"?><!DOCTYPE svg PUBLIC "-//W3C//DTD SVG 1.1//EN" "http://www.w3.org/Graphics/SVG/1.1/DTD/svg11.dtd"><svg t="1623897680643" class="icon" viewBox="0 0 1024 1024" version="1.1" xmlns="http://www.w3.org/2000/svg" p-id="8659" xmlns:xlink="http://www.w3.org/1999/xlink" width="128" height="128"><defs><style type="text/css"></style></defs><path d="M935.792977 229.683289a60.799748 60.799748 0 0 0-35.599853-55.51977L557.874542 10.404197a107.599554 107.599554 0 0 0-92.319618 0L123.316341 174.243519a61.039747 61.039747 0 0 0 0 110.87954l359.998509 171.359291A68.239717 68.239717 0 0 0 511.794733 464.002319a65.839727 65.839727 0 0 0 28.319882-7.999967l359.99851-171.199291a60.719749 60.719749 0 0 0 35.679852-55.119772zM511.794733 381.282661l-318.79868-151.99937 306.878729-146.559394A26.47989 26.47989 0 0 1 511.794733 80.003909a27.359887 27.359887 0 0 1 11.679951 2.559989l307.198728 147.039391zM439.155033 520.002087l-321.598668-152.639368a55.999768 55.999768 0 0 0-55.439771 0A62.399742 62.399742 0 0 0 31.79672 420.482499v388.958389a61.999743 61.999743 0 0 0 32.879864 55.439771l322.238666 151.99937a54.959772 54.959772 0 0 0 26.239891 6.719973 59.279755 59.279755 0 0 0 28.559882-8.639965 62.959739 62.959739 0 0 0 30.079875-52.719781V572.881868A63.359738 63.359738 0 0 0 439.155033 520.002087zM391.795229 931.120385L111.796389 798.640933V453.202363l279.99884 132.719451zM961.55287 368.002716a55.359771 55.359771 0 0 0-54.399775-1.359994L583.794434 520.002087a62.399742 62.399742 0 0 0-31.999867 53.03978v390.158385a62.959739 62.959739 0 0 0 30.079875 52.799781 57.839761 57.839761 0 0 0 28.639882 7.599969h0.559997a53.919777 53.919777 0 0 0 25.839893-6.559973l323.278662-152.639368a61.919744 61.919744 0 0 0 31.999867-55.359771V420.962497a62.079743 62.079743 0 0 0-30.639873-52.959781zM911.793076 799.200931l-279.99884 132.239452V585.441816l279.99884-132.639451z" p-id="8660" fill="#ffffff"></path></svg>