<?xml version="1.0" encoding="UTF-8"?>
<svg width="18px" height="11px" viewBox="0 0 18 11" version="1.1" xmlns="http://www.w3.org/2000/svg" xmlns:xlink="http://www.w3.org/1999/xlink">
    <!-- Generator: Sketch 53.2 (72643) - https://sketchapp.com -->
    <title>工作台_关联</title>
    <desc>Created with Sketch.</desc>
    <g id="页面-1" stroke="none" stroke-width="1" fill="none" fill-rule="evenodd">
        <g id="工作台" transform="translate(-428.000000, -48.000000)" fill="#FFFFFF" fill-rule="nonzero">
            <g id="工具栏" transform="translate(-1.000000, 33.000000)">
                <g id="5" transform="translate(427.000000, 15.000000)">
                    <g id="工作台_关联" transform="translate(2.000000, 0.000000)">
                        <path d="M15.585,0.2904 C14.757,0.2904 14.085,1.0296 14.085,1.9404 C14.085,2.3573 14.23,2.7346 14.463,3.025 L11.171,8.1103 L6.899,1.5103 L2.998,7.5383 C2.819,7.4547 2.622,7.4096 2.415,7.4096 C1.587,7.4096 0.915,8.1488 0.915,9.0596 C0.915,9.9704 1.587,10.7096 2.415,10.7096 C3.243,10.7096 3.915,9.9704 3.915,9.0596 C3.915,8.7813 3.847,8.5239 3.736,8.294 L6.898,3.4078 L11.17,10.0078 L15.341,3.564 C15.421,3.5783 15.501,3.5915 15.585,3.5915 C16.413,3.5915 17.085,2.8523 17.085,1.9415 C17.085,1.0307 16.413,0.2904 15.585,0.2904 Z M2.415,9.6096 C2.139,9.6096 1.915,9.3632 1.915,9.0596 C1.915,8.756 2.139,8.5096 2.415,8.5096 C2.691,8.5096 2.915,8.756 2.915,9.0596 C2.915,9.3632 2.691,9.6096 2.415,9.6096 Z M15.585,2.4904 C15.309,2.4904 15.085,2.244 15.085,1.9404 C15.085,1.6368 15.309,1.3904 15.585,1.3904 C15.861,1.3904 16.085,1.6368 16.085,1.9404 C16.085,2.244 15.861,2.4904 15.585,2.4904 Z" id="形状"></path>
                    </g>
                </g>
            </g>
        </g>
    </g>
</svg>