<?xml version="1.0" encoding="UTF-8"?>
<svg width="12px" height="12px" viewBox="0 0 12 12" version="1.1" xmlns="http://www.w3.org/2000/svg" xmlns:xlink="http://www.w3.org/1999/xlink">
    <title>关系图</title>
    <g id="页面-1" stroke="none" stroke-width="1" fill="none" fill-rule="evenodd">
        <g id="画板" transform="translate(-241.000000, -437.000000)">
            <g id="关系图" transform="translate(241.000000, 437.000000)">
                <path d="M8.46177847,8.33773522 L4.84867395,5.73555114 L8.46177847,8.33773522 C8.44305772,8.33773522 8.46177847,8.33773522 8.46177847,8.33773522 Z M9.92199688,1.16768843 C10.2402496,1.16768843 10.4836193,1.42977892 10.4836193,1.72931089 C10.4836193,1.41105817 10.2402496,1.16768843 9.92199688,1.16768843 L9.92199688,1.16768843 Z" id="形状" fill="#000000" fill-rule="nonzero"></path>
                <path d="M10.8580343,0.007002 L1.12324493,0.007002 C0.505460215,0.007002 0,0.512462215 0,1.13024693 L0,10.8650363 C0,11.482821 0.505460215,11.9882812 1.12324493,11.9882812 L10.8580343,11.9882812 C11.475819,11.9882812 11.9812793,11.482821 11.9812793,10.8650363 L11.9812793,1.13024693 C11.9812793,0.493741465 11.475819,0.007002 10.8580343,0.007002 Z M11.2324493,10.8463156 C11.2324493,11.0522438 11.0639626,11.2207305 10.8580343,11.2207305 L1.12324493,11.2207305 C0.917316691,11.2207305 0.748829953,11.0522438 0.748829953,10.8463156 L0.748829953,1.11152618 C0.748829953,0.905597941 0.917316691,0.737111203 1.12324493,0.737111203 L10.8580343,0.737111203 C11.0639626,0.737111203 11.2324493,0.905597941 11.2324493,1.11152618 L11.2324493,10.8463156 Z" id="形状" fill="#ADB5B9" fill-rule="nonzero"></path>
                <path d="M9.92199688,1.16768843 L8.57410296,1.16768843 C8.25585023,1.16768843 8.0124805,1.41105817 8.0124805,1.72931089 L8.0124805,3.05848406 L4.36193448,5.15520792 L4.36193448,4.9118382 C4.36193448,4.59358547 4.11856474,4.35021573 3.80031202,4.35021573 L2.05928237,4.35021573 C1.74102964,4.35021573 1.49765991,4.59358547 1.49765991,4.9118382 L1.49765991,6.65286783 C1.49765991,6.97112055 1.74102964,7.21449029 2.05928237,7.21449029 L3.80031202,7.21449029 C4.11856474,7.21449029 4.36193448,6.97112055 4.36193448,6.65286783 L4.36193448,6.31589435 L8.0124805,8.95551994 L8.0124805,10.2285309 C8.0124805,10.5467836 8.25585023,10.7901533 8.57410296,10.7901533 L9.92199688,10.7901533 C10.2402496,10.7901533 10.4836193,10.5467836 10.4836193,10.2285309 L10.4836193,8.88063695 C10.4836193,8.56238422 10.2402496,8.31901448 9.92199688,8.31901448 L8.57410296,8.31901448 C8.53666146,8.31901448 8.49921996,8.31901448 8.46177847,8.33773522 L8.44305772,8.33773522 L4.84867395,5.73555114 L8.55538221,3.63882728 L9.92199688,3.63882728 C10.2402496,3.63882728 10.4836193,3.39545754 10.4836193,3.07720481 L10.4836193,1.72931089 C10.4836193,1.42977892 10.2402496,1.16768843 9.92199688,1.16768843 Z M3.61310453,6.46566034 L2.24648986,6.46566034 L2.24648986,5.09904568 L3.61310453,5.09904568 L3.61310453,6.46566034 Z M8.76131045,9.06784444 L9.73478939,9.06784444 L9.73478939,10.0413234 L8.76131045,10.0413234 L8.76131045,9.06784444 Z M9.73478939,2.88999732 L8.76131045,2.88999732 L8.76131045,1.91651838 L9.73478939,1.91651838 L9.73478939,2.88999732 Z" id="形状" fill="#ADB5B9" fill-rule="nonzero"></path>
                <rect id="矩形" fill="#ADB5B9" x="2" y="5" width="2" height="2"></rect>
                <path d="M8.4,8.5 C9.5045695,8.5 10.4,9.3954305 10.4,10.5 L10.4,10.5 L10.4,10.5 L8.4,10.5 L8.4,8.5 Z" id="矩形备份-7" fill="#ADB5B9"></path>
            </g>
        </g>
    </g>
</svg>